PathFileType	4	(X/Y/Z)	D:\TRACE\v60_Jaco2_6-2-23\JustBodyDRS_Motion2_6-v60.trc
DataRate	CameraRate	NumFrames	NumMarkers	Units	OrigDataRate	OrigDataStartFrame	OrigNumFrames
100.00	100.00	      38	9	mm	100.00	843	      6741
Frame#	Time	front left toe			Front right toe			aft left toe			aft right toe			Arm			FL body			FR body			AL Body			AR Body			
		X1	Y1	Z1	X2	Y2	Z2	X3	Y3	Z3	X4	Y4	Z4	X5	Y5	Z5	X6	Y6	Z6	X7	Y7	Z7	X8	Y8	Z8	X9	Y9	Z9	

843	8.420	-164.15947	40.36685	-323.36319	175.31281	38.19995	-304.23865	-198.11517	23.53375	328.03955	211.92313	-1.54783	302.57339	-95.98678	1218.76294	-421.80209	-69.31356	586.96344	-438.97723	90.36980	587.00659	-440.80441	-61.17543	552.17511	506.63770	96.77753	546.40918	507.16989	
844	8.430	-163.84119	41.19893	-323.01395	176.19301	39.29910	-305.67209	-198.41776	17.58692	328.48654	212.39133	-2.03235	302.93539	-96.13389	1219.66211	-419.85217	-70.88290	588.08069	-438.00714	89.26747	588.23511	-439.42950	-60.59341	550.83563	507.57742	98.06910	546.03351	508.31439	
845	8.440	-163.72832	42.12229	-322.61612	176.06070	40.71109	-304.70551	-197.46317	10.88776	328.85461	212.46513	-2.52561	302.83560	-96.20812	1221.19824	-417.47968	-71.01315	589.80469	-436.39835	88.94327	589.98523	-438.48785	-60.11655	549.84467	508.83139	97.64507	545.17645	509.35233	
846	8.450	-163.71829	42.49108	-322.18552	175.73624	41.57745	-303.93298	-196.18593	1.18003	328.55579	212.68291	-2.77096	303.35730	-99.25484	1223.17932	-413.06018	-72.62697	591.74872	-435.45972	87.85051	591.56641	-437.72021	-60.31043	549.89203	509.82703	97.64553	544.63959	510.36517	
847	8.460	-164.08551	43.11596	-321.59607	175.72095	42.94739	-302.96292	-197.43625	-9.60854	326.37976	212.72813	-2.98769	303.44489	-98.97684	1224.12122	-411.19193	-73.20451	593.13916	-434.28723	86.67470	592.76154	-436.29883	-59.83366	549.88269	511.02005	98.55643	544.17542	511.30878	
848	8.470	-163.97574	43.37760	-321.22717	175.14166	43.11142	-302.60675	-200.34909	-7.86082	326.48508	212.21521	-2.99294	303.58478	-101.58000	1225.80786	-407.13559	-74.02022	594.10425	-432.72937	85.96529	593.35547	-435.84113	-58.66121	551.97406	512.15216	98.67039	545.64246	512.02960	
849	8.480	-164.84280	46.94063	-322.22827	174.26860	42.13653	-299.16309	-197.83556	-7.05970	330.79996	211.82748	-0.91948	302.47388	-99.32525	1228.33679	-406.92877	-75.53856	595.47339	-432.04935	84.39822	594.40955	-434.63321	-58.99568	553.64008	513.19122	98.81548	546.64447	512.69275	
850	8.490	-162.14804	52.02642	-320.38544	174.15540	42.75381	-300.15161	-197.93584	-8.79787	329.39075	209.86725	2.82112	304.88242	-99.74662	1230.38525	-405.28485	-76.88545	597.67773	-430.96570	82.89998	596.84473	-434.38409	-57.99332	552.51819	513.98541	96.96268	545.57355	511.57983	
851	8.500	-158.57985	57.69195	-316.14496	174.31892	43.36950	-299.86719	-198.31425	-9.00314	329.38376	210.06090	5.92366	308.98026	-99.47778	1232.29175	-404.31729	-77.98756	599.97699	-430.37543	82.32978	598.91327	-434.15472	-57.31006	551.46149	514.27374	97.49422	543.91058	512.06079	
852	8.510	-156.91385	68.98497	-315.75085	174.19235	43.48021	-300.69278	-197.83575	-9.34200	330.53885	209.42523	15.42212	308.76849	-97.72186	1233.59839	-403.20120	-79.01379	601.96082	-430.16333	81.53611	600.55219	-434.03372	-56.81984	550.28754	514.63721	98.26585	542.31641	510.40930	
853	8.520	-157.15558	79.21455	-315.16211	174.40504	43.43931	-300.45258	-198.04602	-9.63540	329.77673	209.07939	24.48579	307.46811	-96.44977	1234.38391	-401.07632	-79.42260	602.93250	-429.74008	80.56383	601.36548	-433.69473	-56.68466	549.46387	514.81934	99.42255	541.37366	510.56140	
854	8.530	-160.74721	92.29391	-316.25986	174.43420	43.48945	-300.48944	-198.14716	-9.76344	330.35898	208.90724	38.92932	303.96182	-96.84968	1235.05945	-398.11371	-79.73985	604.23212	-429.62570	80.61067	602.48053	-433.93243	-56.03609	548.40302	514.93109	99.88097	540.25702	510.66574	
855	8.540	-163.12395	105.40893	-317.52917	172.70074	43.35538	-300.61627	-198.52534	-10.10541	330.46375	210.95099	51.22129	301.56366	-97.65571	1236.38965	-393.63675	-79.51601	605.06281	-429.22635	80.68284	603.64459	-433.67978	-56.05622	547.04626	514.99902	99.98117	538.90558	510.74988	
856	8.550	-166.03853	118.77563	-317.71292	173.99655	43.60583	-300.48270	-199.30025	-10.43235	330.28769	212.75920	63.37526	300.33136	-98.85102	1238.44031	-393.28299	-79.25408	606.51190	-428.91977	80.63184	604.42175	-432.94882	-56.03363	545.26404	515.19275	99.97815	536.91913	510.91397	
857	8.560	-168.21758	131.92041	-317.26346	173.87846	44.16921	-300.20926	-199.88380	-10.78978	330.55386	214.17708	74.51147	299.73184	-99.29117	1239.37134	-390.90482	-79.05235	607.63226	-428.52734	81.22208	605.63568	-433.05270	-55.63491	543.51953	515.26483	100.33018	534.92084	511.24820	
858	8.570	-170.33969	143.74538	-316.08267	173.76727	44.37486	-299.98508	-200.10863	-11.13466	330.57288	213.71170	84.33800	299.58432	-98.41777	1239.55994	-389.14328	-78.35288	608.08020	-427.58398	81.31736	606.26141	-432.28552	-55.56251	541.77051	515.42932	100.78373	533.22546	511.42377	
859	8.580	-171.71193	154.70383	-314.64798	171.88110	44.13786	-300.33447	-200.64738	-11.76353	330.66806	213.47475	93.20834	300.55688	-97.11984	1239.43176	-387.02896	-79.27897	608.79919	-427.61218	80.70798	607.09845	-431.56143	-55.32342	540.13745	515.86914	101.46494	531.74725	511.51538	
860	8.590	-171.90472	163.48482	-313.19382	171.79659	44.33262	-300.33408	-200.72678	-12.10199	330.92123	214.03224	100.65907	301.99191	-95.55322	1239.92444	-385.09058	-78.72769	609.43439	-426.53131	80.97002	607.83093	-431.43201	-54.24615	538.85797	516.88397	102.02365	530.44830	511.89407	
861	8.600	-173.04393	170.12079	-310.36752	171.39218	44.70089	-299.98700	-201.14662	-12.13026	331.04135	215.22964	106.53019	303.49268	-95.16509	1241.25427	-383.32614	-79.35075	610.40430	-426.32660	80.77263	608.24890	-430.91318	-53.50189	537.87201	517.18597	102.35361	529.27234	512.36932	
862	8.610	-174.06425	174.67755	-307.39258	171.05721	45.01056	-299.89636	-201.86636	-12.12408	331.64911	217.64203	110.85316	305.17343	-95.06535	1242.28040	-381.67465	-79.29272	610.81335	-425.44720	80.89864	608.46759	-430.37576	-53.19609	536.78748	517.46381	103.40811	528.06586	512.74127	
863	8.620	-174.96548	176.01640	-303.98199	170.67014	45.23354	-299.72534	-202.61745	-12.44345	331.70718	219.68860	112.60013	306.95984	-95.11766	1242.76807	-379.58469	-78.63725	610.88647	-424.24048	80.94005	608.72485	-429.61002	-52.41417	535.99548	518.46100	103.73698	527.21777	513.27734	
864	8.630	-176.35844	175.02821	-300.12921	169.90872	45.24003	-299.60437	-202.68123	-13.02443	331.83694	221.60068	111.36220	308.98080	-94.57526	1242.67297	-377.94400	-79.24055	611.50189	-424.04584	81.35534	608.90247	-429.04776	-51.38288	535.55261	518.99554	104.71712	526.59131	513.91986	
865	8.640	-177.61743	171.90569	-296.13614	169.12666	45.45127	-299.48355	-203.11653	-13.28728	332.22635	223.82396	107.63602	311.55121	-93.89764	1242.59094	-376.64984	-78.98414	611.77301	-423.05038	81.37963	608.96045	-428.33820	-50.44013	535.11615	519.66351	105.97591	526.07361	514.72455	
866	8.650	-178.32759	167.38734	-292.00510	168.77628	45.56396	-299.44513	-203.19534	-13.46528	332.42462	226.76355	102.34652	313.82104	-92.71792	1242.44934	-375.67923	-78.43561	611.77863	-421.91846	81.42970	609.37689	-427.57236	-49.03291	534.36627	520.70703	106.95493	525.54077	515.23224	
867	8.660	-177.89511	160.30183	-287.91989	168.58234	45.74025	-299.30530	-203.76064	-13.19565	332.52490	229.95149	96.25404	316.04852	-92.21004	1242.82361	-374.84586	-78.81330	612.54523	-421.28943	81.51490	609.79871	-426.88605	-47.77961	533.95160	521.21564	108.47052	524.78882	515.87158	
868	8.670	-177.12140	152.21832	-283.87546	168.24863	45.91492	-299.12430	-204.32622	-12.94262	332.49097	233.63950	89.36495	318.32901	-91.87152	1243.12439	-373.94662	-78.23022	612.78687	-420.18262	82.05771	610.21216	-426.18851	-46.18365	532.92963	522.28717	109.97258	523.97241	516.65552	
869	8.680	-176.17964	142.36835	-279.87628	167.86760	45.93140	-299.05322	-204.48502	-13.18855	332.79950	236.97359	80.92509	320.32404	-91.83253	1243.32324	-371.85223	-77.25410	612.86871	-419.18744	82.47645	610.27686	-425.36462	-45.11067	532.48413	522.90814	111.42497	523.48126	516.80042	
870	8.690	-175.16714	131.34944	-275.90244	167.44266	45.90187	-299.12262	-204.95465	-13.23292	332.94644	240.98190	71.92800	322.49994	-91.80942	1243.63342	-369.88373	-77.21049	612.80621	-418.59042	82.86937	610.35852	-424.88220	-43.03265	532.11310	523.59045	113.16864	523.01758	517.70001	
871	8.700	-174.40977	119.95509	-272.13004	166.68649	45.69167	-299.16495	-206.28462	-12.40588	332.95303	244.89546	62.31850	324.70557	-91.80744	1243.74084	-368.09341	-76.35451	612.87555	-417.28891	83.29662	610.51642	-424.29160	-41.52181	531.31775	524.50757	114.73933	522.57898	518.19714	
872	8.710	-173.44907	107.94922	-268.35815	166.11398	45.59880	-299.24924	-206.48071	-12.40357	332.95016	248.84377	52.43552	327.12030	-91.30495	1243.86816	-366.55054	-76.42067	613.37378	-416.65674	83.85165	610.60608	-423.46262	-39.58454	531.07635	525.09271	116.72687	522.05768	518.99597	
873	8.720	-172.10719	96.18987	-264.80197	165.56602	45.58080	-299.28943	-206.89998	-12.44832	333.18628	253.51093	42.15981	329.59402	-90.99642	1244.02979	-365.38718	-75.86681	613.42212	-415.78372	84.55263	610.91028	-422.59195	-37.28271	530.22491	526.46307	118.58416	521.36041	519.49060	
874	8.730	-170.46332	84.74666	-261.18594	164.93303	45.24316	-298.96033	-207.27496	-12.48447	333.30029	257.32681	32.32894	331.67792	-90.12854	1243.65881	-364.01608	-75.16388	613.55542	-414.62463	85.17377	611.15833	-421.66110	-35.30661	529.51361	527.13135	120.63793	520.72772	520.22278	
875	8.740	-168.00012	73.65379	-258.48410	164.49191	45.48769	-299.25171	-207.61093	-12.37584	333.37665	260.94522	22.89570	332.87946	-89.90068	1243.51697	-362.75250	-74.38686	613.16412	-413.47891	85.84167	611.08527	-420.97101	-33.24950	528.53961	528.30963	122.25477	520.12170	520.84235	
876	8.750	-165.68715	62.97297	-255.73396	163.83868	45.31320	-299.49963	-207.73228	-12.20960	333.46661	263.86496	13.80359	333.92142	-89.52278	1243.25293	-361.40369	-73.66993	613.03650	-412.32562	86.21716	610.99829	-420.29855	-31.52573	528.08484	529.26465	124.91600	519.64374	521.80920	
877	8.760	-163.29263	53.44188	-252.89691	163.34431	45.11133	-299.61404	-207.77032	-12.21868	333.62619	266.65164	5.58102	335.12552	-88.75688	1243.15222	-359.59732	-72.73536	612.95325	-410.84384	87.31762	611.10925	-418.78674	-29.31890	527.48584	530.38336	127.08317	519.07251	522.70782	
878	8.770	-160.94153	46.84295	-251.95247	162.85658	44.92719	-299.49033	-207.82211	-12.39066	333.89267	268.68930	-2.00961	336.79330	-85.97250	1243.99854	-359.43649	-71.83893	612.89807	-409.73163	88.28149	610.89056	-417.61978	-26.48678	526.40387	531.63495	129.33371	518.37396	523.63696	
879	8.780	-162.88597	46.97348	-254.80301	162.36319	44.58859	-299.36777	-209.30386	-11.32738	333.75128	269.08792	-5.65314	336.72681	-85.25826	1243.71375	-357.73630	-70.92339	612.80060	-408.32236	89.48560	610.95233	-416.73022	-24.21664	525.78809	532.65436	131.43974	517.21307	524.62384	
880	8.790	-164.11790	46.38811	-253.38408	161.30632	43.98634	-299.69550	-210.52910	-10.36666	333.76608	270.15237	-7.40300	335.41495	-86.04553	1243.03931	-354.44370	-69.51606	613.15125	-406.73657	90.85310	611.30237	-415.25464	-21.92255	525.10724	534.31360	133.97473	516.87140	525.95593	
